<?xml version="1.0" encoding="UTF-8"?>
<svg xmlns="http://www.w3.org/2000/svg" xmlns:xlink="http://www.w3.org/1999/xlink" width="16px" height="16px" viewBox="0 0 16 16" version="1.1">
<g id="surface1">
<path style=" stroke:none;fill-rule:nonzero;fill:rgb(25.882354%,52.156866%,95.686275%);fill-opacity:1;" d="M 15.992188 8.148438 C 15.992188 7.496094 15.9375 7.015625 15.820312 6.519531 L 8.160156 6.519531 L 8.160156 9.476562 L 12.65625 9.476562 C 12.566406 10.214844 12.074219 11.320312 10.988281 12.066406 L 10.972656 12.164062 L 13.394531 13.996094 L 13.5625 14.015625 C 15.105469 12.625 15.992188 10.578125 15.992188 8.148438 "/>
<path style=" stroke:none;fill-rule:nonzero;fill:rgb(20.392157%,65.882355%,32.549021%);fill-opacity:1;" d="M 8.160156 15.945312 C 10.363281 15.945312 12.210938 15.238281 13.5625 14.015625 L 10.988281 12.066406 C 10.300781 12.535156 9.375 12.863281 8.160156 12.863281 C 6 12.863281 4.171875 11.472656 3.515625 9.550781 L 3.421875 9.558594 L 0.902344 11.460938 L 0.871094 11.550781 C 2.210938 14.15625 4.96875 15.945312 8.160156 15.945312 "/>
<path style=" stroke:none;fill-rule:nonzero;fill:rgb(98.431373%,73.725492%,1.960784%);fill-opacity:1;" d="M 3.515625 9.550781 C 3.34375 9.054688 3.246094 8.523438 3.246094 7.972656 C 3.246094 7.421875 3.34375 6.890625 3.507812 6.394531 L 3.503906 6.289062 L 0.953125 4.355469 L 0.871094 4.394531 C 0.316406 5.472656 0 6.6875 0 7.972656 C 0 9.257812 0.316406 10.46875 0.871094 11.550781 L 3.515625 9.550781 "/>
<path style=" stroke:none;fill-rule:nonzero;fill:rgb(92.156863%,26.274511%,20.784314%);fill-opacity:1;" d="M 8.160156 3.082031 C 9.691406 3.082031 10.726562 3.730469 11.3125 4.269531 L 13.617188 2.074219 C 12.203125 0.789062 10.363281 0 8.160156 0 C 4.96875 0 2.210938 1.789062 0.871094 4.394531 L 3.507812 6.394531 C 4.171875 4.472656 6 3.082031 8.160156 3.082031 "/>
</g>
</svg>
